<svg xmlns="http://www.w3.org/2000/svg" fill="none" viewBox="0 0 2324 316"><g clip-path="url(#a)"><path d="M552.122 134.53c0-9.334-3.325-17.445-9.888-24.097-6.562-6.652-14.563-10.023-23.772-10.023H348.54c-2.869 0-5.451 1.086-7.465 3.128-2.015 2.042-3.086 4.659-3.086 7.568v93.787c0 2.909 1.071 5.526 3.078 7.568 2.014 2.05 4.596 3.127 7.473 3.127h169.922c9.209 0 17.21-3.37 23.772-10.023 6.563-6.652 9.888-14.762 9.888-24.097 0-8.718-2.941-16.432-8.769-22.946l-.471-.51.495-.56c5.804-6.49 8.745-14.203 8.745-22.922Zm-24.715 8.97c-2.526 2.585-5.364 3.808-8.865 3.84h-159.53v-25.628h159.45c3.485 0 6.307 1.215 8.873 3.816 2.574 2.609 3.765 5.461 3.765 9.002.008 3.549-1.167 6.401-3.693 8.97Zm-168.395 25.158h159.474c3.557.041 6.395 1.264 8.921 3.841 2.518 2.577 3.693 5.429 3.693 8.969 0 3.582-1.191 6.45-3.749 9.027-2.566 2.584-5.396 3.784-8.889 3.784h-159.45v-25.621Zm419.649-52.816c-4.86-4.926-10.504-8.767-16.77-11.424a50.585 50.585 0 0 0-19.816-4.011H632.327a50.815 50.815 0 0 0-19.847 4.003c-6.299 2.657-11.958 6.498-16.818 11.432-5.108 5.178-9.041 11.692-11.686 19.357-2.574 7.463-3.877 15.128-3.877 22.801 0 7.673 1.303 15.338 3.877 22.801 2.645 7.665 6.578 14.179 11.686 19.357 4.86 4.926 10.519 8.775 16.818 11.432a50.815 50.815 0 0 0 19.847 4.003h109.748c6.867 0 13.533-1.345 19.816-4.011 6.266-2.657 11.91-6.498 16.77-11.424 5.107-5.178 9.032-11.684 11.686-19.357 2.574-7.463 3.877-15.136 3.877-22.801 0-7.665-1.303-15.338-3.877-22.801-2.646-7.673-6.579-14.179-11.686-19.357Zm-6.539 52.853c-1.527 6.839-4.316 12.357-8.313 16.408-6.099 6.174-13.205 9.18-21.734 9.18H632.327c-8.529 0-15.643-3.006-21.734-9.18-3.988-4.043-6.786-9.561-8.313-16.399-1.574-7.066-1.574-14.253 0-21.351 1.527-6.863 4.325-12.397 8.313-16.44 6.099-6.174 13.205-9.18 21.734-9.18h109.748c8.529 0 15.635 3.006 21.734 9.18 3.989 4.043 6.786 9.577 8.313 16.44a48.79 48.79 0 0 1 0 21.342Zm264.778-56.102c.41-2.844-.29-5.574-2.01-7.908-1.72-2.325-4.1-3.768-6.89-4.173-2.8-.405-5.5.292-7.77 2.018l-59.554 44.815h-61.484l-59.526-44.799c-2.295-1.742-5.004-2.439-7.794-2.034-2.79.414-5.172 1.856-6.898 4.181-1.727 2.334-2.422 5.072-2.007 7.9.408 2.828 1.831 5.243 4.141 7.001l50.941 38.365-50.957 38.374c-2.294 1.742-3.725 4.181-4.125 7.041-.407 2.861.288 5.607 2.015 7.941 1.718 2.317 4.092 3.759 6.89 4.173.52.073 1.039.113 1.551.113 2.238 0 4.372-.729 6.227-2.139l59.55-44.815h61.484l59.526 44.799c2.29 1.75 4.99 2.447 7.8 2.034 2.79-.414 5.17-1.856 6.89-4.181 1.72-2.326 2.42-5.064 2.02-7.933-.41-2.86-1.83-5.299-4.14-7.057l-50.945-38.366 50.965-38.382c2.27-1.725 3.69-4.14 4.1-6.968Zm226.91 21.934c0-9.334-3.32-17.445-9.88-24.097-6.57-6.652-14.57-10.023-23.78-10.023h-158.57c-2.87 0-5.45 1.086-7.46 3.128-2.02 2.041-3.09 4.659-3.09 7.567 0 2.942 1.09 5.567 3.14 7.576 2.01 1.985 4.57 3.031 7.41 3.031h158.57c3.54 0 6.37 1.207 8.91 3.8 2.55 2.609 3.74 5.469 3.74 9.018 0 3.549-1.17 6.393-3.69 8.969-2.53 2.585-5.37 3.801-8.87 3.841h-135.8c-2.87 0-5.45 1.086-7.46 3.128-2.02 2.041-3.09 4.667-3.09 7.567 0 2.942 1.09 5.567 3.14 7.576 2.01 1.985 4.57 3.031 7.41 3.031h135.75c3.55.04 6.39 1.264 8.92 3.84 2.52 2.577 3.69 5.429 3.69 8.97 0 3.597-1.18 6.466-3.72 9.042-2.55 2.577-5.38 3.776-8.93 3.776h-158.57c-2.83 0-5.4 1.045-7.41 3.03-2.05 2.026-3.14 4.643-3.14 7.584 0 2.909 1.07 5.526 3.08 7.568 2.01 2.05 4.6 3.128 7.47 3.128h158.57c9.21 0 17.21-3.371 23.78-10.023 6.56-6.652 9.88-14.763 9.88-24.097 0-8.718-2.94-16.432-8.8-22.995l-.44-.47.5-.559c5.8-6.474 8.74-14.188 8.74-22.906Zm215.58 59.748h-140.08c-8.53 0-15.64-3.006-21.73-9.18-4.95-5.024-7.99-12.186-9.01-21.302l-.38-3.443v-49.248l-.05-1.507a10.473 10.473 0 0 0-3.57-6.62c-4.15-3.58-10.49-3.305-14.32.56-2.02 2.049-3.08 4.667-3.08 7.567v46.849c0 7.803 1.28 15.484 3.79 22.833 2.59 7.552 6.55 14.075 11.77 19.365 4.86 4.927 10.51 8.767 16.77 11.425 6.28 2.666 12.95 4.011 19.82 4.011h140.08c2.87 0 5.45-1.078 7.46-3.12 2.02-2.041 3.09-4.659 3.09-7.576 0-2.941-1.08-5.566-3.15-7.592-2.01-1.977-4.57-3.022-7.41-3.022Zm232.47-78.433c-4.86-4.926-10.5-8.767-16.77-11.424a50.534 50.534 0 0 0-19.81-4.011h-109.83c-6.87 0-13.53 1.345-19.81 4.011-6.27 2.657-11.91 6.498-16.77 11.424-5.22 5.291-9.18 11.79-11.77 19.325a69.853 69.853 0 0 0-3.8 22.792v46.939c0 2.908 1.07 5.526 3.08 7.567 4.04 4.117 10.97 4.1 14.96-.056 1.95-2.042 2.98-4.635 2.98-7.511v-19.633h172.08v19.633c0 2.876 1.04 5.477 2.99 7.503 1.99 2.082 4.58 3.192 7.48 3.192 2.87 0 5.46-1.086 7.46-3.128 2.03-2.041 3.09-4.659 3.09-7.567v-46.939c0-7.81-1.28-15.475-3.8-22.792-2.57-7.527-6.53-14.026-11.76-19.325Zm-177.54 48.113v-5.914c0-5.227.83-10.396 2.46-15.363 1.53-4.699 3.88-8.662 6.94-11.781 6.1-6.174 13.21-9.18 21.74-9.18h109.83c8.53 0 15.64 3.006 21.73 9.18 3.07 3.111 5.4 7.073 6.95 11.781a49.553 49.553 0 0 1 2.45 15.363v5.914h-172.1Zm430.6-29.428c0-9.334-3.33-17.445-9.89-24.097-6.57-6.652-14.57-10.023-23.77-10.023h-169.92c-2.87 0-5.45 1.086-7.47 3.128-2.02 2.05-3.08 4.667-3.08 7.567v93.788c0 2.908 1.06 5.525 3.08 7.567 2.01 2.05 4.6 3.128 7.47 3.128h169.92c9.2 0 17.21-3.371 23.77-10.023 6.56-6.652 9.89-14.755 9.89-24.097 0-8.718-2.95-16.432-8.77-22.946l-.47-.511.5-.559c5.79-6.49 8.74-14.196 8.74-22.922Zm-24.72 8.969c-2.49 2.553-5.41 3.809-8.86 3.841h-159.53v-25.628h159.45c3.48 0 6.3 1.215 8.87 3.816 2.56 2.609 3.76 5.469 3.76 9.002 0 3.549-1.17 6.401-3.69 8.969Zm-168.39 25.159h159.47c3.51.04 6.43 1.296 8.92 3.84 2.53 2.577 3.7 5.429 3.7 8.97 0 3.581-1.19 6.45-3.75 9.026-2.56 2.585-5.39 3.792-8.89 3.792h-159.45v-25.628Zm420.69-11.287c-6.57-6.652-14.56-10.023-23.77-10.023h-146.81c-3.54 0-6.37-1.207-8.9-3.8-2.55-2.601-3.73-5.469-3.73-9.01 0-3.549 1.19-6.409 3.73-9.01 2.54-2.593 5.37-3.8 8.9-3.8h164.29c2.87 0 5.44-1.07 7.43-3.087 1.99-2.018 3.04-4.619 3.04-7.528 0-2.868-1.03-5.469-2.99-7.519-2-2.082-4.59-3.176-7.47-3.176h-164.29c-9.21 0-17.2 3.371-23.77 10.023-6.56 6.652-9.9 14.763-9.9 24.097 0 9.342 3.33 17.445 9.9 24.097 6.56 6.652 14.56 10.023 23.77 10.023h146.81c3.49 0 6.32 1.207 8.89 3.784 2.56 2.576 3.75 5.445 3.75 9.026 0 3.581-1.19 6.45-3.75 9.026-2.56 2.585-5.39 3.792-8.89 3.792h-164.29c-2.86 0-5.43 1.062-7.42 3.087-1.99 2.018-3.04 4.619-3.04 7.528 0 2.876 1.03 5.469 2.99 7.511 2 2.082 4.59 3.184 7.48 3.184h164.29c9.2 0 17.21-3.371 23.77-10.023 6.56-6.652 9.89-14.755 9.89-24.097-.01-9.342-3.34-17.453-9.91-24.105Z" fill="#000"/><path d="M264.639 189.503h-39.143c-.847-12.276-4.5-24.519-11.678-36.575-7.386-12.413-19.048-22.209-28.553-32.945 6.147-11.044 14.476-22.655 19.48-35.595 15.028-38.852-4.564-74.957-44.906-82.46-39.991-7.43-73.93 7.195-103.322 33.747-8.569 7.755-15.251 17.656-23.54 27.444C43.8 69.22 52.537 74.146 61.545 79.227c11.614-18.336 26.65-31.155 45.354-39.282 16.314-7.09 33.236-10.898 50.901-5.744 14.636 4.27 21.798 14.276 19.88 29.145-2.566 19.956-14.628 34.274-30.175 45.269-7.841 5.542-16.602-.519-16.65-10.226-.032-6.798.264-13.62-.208-20.386-.144-2.05-2.294-5.566-3.677-5.647-8.968-.494-17.977-.243-27.625-.243 0 12.186-.183 23.286.088 34.379.12 4.869-1.527 7-6.227 8.645-9.76 3.403-19.151 7.868-29.503 12.235 5.851 10.266 10.88 19.09 15.955 27.986 6.618-2.949 12.373-5.517 19.008-8.475.296 3.533.663 5.883.671 8.232.048 18.499.496 37.013-.2 55.479a22.328 22.328 0 0 0 .184 3.954l-.024.769c0 3.566 2.854 6.458 6.371 6.458h82.355c-16.202 38.868-64.21 67.883-104.992 61.58-22.757-3.517-40.958-13.443-48.751-36.81-5.955-17.842-2.206-34.963 6.626-50.998 3.605-6.539 8.13-12.559 12.51-19.235-7.714-7.017-15.163-13.799-24.012-21.853-6.986 11.4-14.156 20.994-19.184 31.632-28.696 60.721 5.683 123.078 70.933 129.342 52.811 5.072 107.286-24.535 131.721-72.251 3.629-7.09 6.563-14.236 8.721-21.423h43.044v-32.256ZM130.903 150.27c.008-2.901.32-5.793.551-9.699 5.58.624 10.344.9 15.02 1.71 26.937 4.643 44.331 23.311 46.777 47.222h-62.388c-.016-13.078.016-26.155.04-39.233Z" fill="url(#b)"/><path d="M2243.12 106.724h-15.15v-5.794h36.73v5.794h-15.15v43.891h-6.43v-43.891Zm28.72-5.807h8.65l17.44 41.429 17.43-41.429h8.65v49.685h-6.44v-41.72l-17.22 41.72h-4.86l-17.22-41.72v41.72h-6.43v-49.685Z" fill="#000"/></g><defs><linearGradient id="b" x1="-582.235" x2="367.94" y1="587.784" y2="475.055" gradientUnits="userSpaceOnUse"><stop stop-color="#F94E65"/><stop offset="1" stop-color="#FFC800"/></linearGradient><clipPath id="a"><path d="M0 0h2324v316H0z" fill="#fff"/></clipPath></defs></svg>