<svg xmlns="http://www.w3.org/2000/svg" fill="none" viewBox="0 0 2392 322"><g clip-path="url(#a)"><path d="M568.277 137.084c0-9.512-3.422-17.777-10.177-24.555-6.754-6.779-14.99-10.213-24.467-10.213H358.739c-2.954 0-5.611 1.106-7.684 3.187-2.074 2.08-3.176 4.747-3.176 7.711v95.568c0 2.964 1.102 5.631 3.167 7.712 2.074 2.089 4.731 3.187 7.693 3.187h174.894c9.477 0 17.713-3.435 24.467-10.214 6.755-6.778 10.177-15.043 10.177-24.554 0-8.884-3.027-16.744-9.025-23.382l-.485-.52.51-.57c5.973-6.613 9-14.474 9-23.357Zm-25.438 9.139c-2.6 2.634-5.521 3.881-9.124 3.914H369.516v-26.115h164.117c3.587 0 6.491 1.238 9.132 3.889 2.649 2.658 3.875 5.564 3.875 9.173.008 3.616-1.201 6.522-3.801 9.139ZM369.516 171.86h164.141c3.661.041 6.582 1.288 9.182 3.913 2.591 2.626 3.801 5.532 3.801 9.14 0 3.649-1.226 6.572-3.859 9.198-2.641 2.633-5.553 3.855-9.148 3.855H369.516V171.86Zm431.928-53.818c-5.002-5.02-10.81-8.934-17.261-11.642a52.523 52.523 0 0 0-20.395-4.087H650.829a52.769 52.769 0 0 0-20.428 4.079 53.256 53.256 0 0 0-17.31 11.65c-5.258 5.276-9.305 11.914-12.029 19.724-2.649 7.605-3.99 15.415-3.99 23.234 0 7.819 1.341 15.629 3.99 23.234 2.724 7.81 6.771 14.448 12.029 19.724 5.002 5.02 10.827 8.942 17.31 11.65a52.769 52.769 0 0 0 20.428 4.079h112.959c7.067 0 13.929-1.371 20.395-4.087 6.451-2.708 12.259-6.622 17.261-11.642 5.257-5.276 9.297-11.906 12.028-19.724 2.649-7.605 3.99-15.423 3.99-23.234 0-7.811-1.341-15.629-3.99-23.234-2.723-7.818-6.771-14.448-12.028-19.724Zm-6.73 53.856c-1.571 6.969-4.442 12.591-8.556 16.72-6.277 6.291-13.591 9.354-22.37 9.354H650.829c-8.779 0-16.101-3.063-22.37-9.354-4.105-4.12-6.985-9.743-8.556-16.711-1.621-7.2-1.621-14.523 0-21.756 1.571-6.993 4.451-12.632 8.556-16.752 6.277-6.292 13.591-9.355 22.37-9.355h112.959c8.779 0 16.093 3.063 22.37 9.355 4.105 4.12 6.985 9.759 8.556 16.752a49.233 49.233 0 0 1 0 21.747Zm272.526-57.167c.42-2.898-.3-5.68-2.07-8.058-1.77-2.37-4.22-3.839-7.1-4.252-2.87-.413-5.66.297-7.99 2.056l-61.294 45.666h-63.284l-61.268-45.65c-2.361-1.775-5.15-2.485-8.022-2.072-2.871.421-5.323 1.89-7.1 4.26-1.777 2.378-2.492 5.169-2.065 8.05.42 2.882 1.884 5.342 4.262 7.134l52.432 39.094-52.448 39.102c-2.362 1.775-3.834 4.26-4.246 7.175-.419 2.914.297 5.713 2.074 8.091 1.768 2.361 4.212 3.831 7.091 4.252.535.075 1.07.116 1.597.116 2.303 0 4.5-.743 6.408-2.18l61.293-45.666h63.284l61.266 45.65c2.36 1.783 5.14 2.493 8.03 2.072 2.87-.421 5.32-1.891 7.09-4.26 1.77-2.37 2.49-5.161 2.08-8.083-.42-2.915-1.89-5.4-4.27-7.192l-52.43-39.094 52.46-39.11c2.34-1.759 3.8-4.219 4.22-7.101Zm233.55 22.35c0-9.511-3.42-17.776-10.17-24.554-6.76-6.779-14.99-10.214-24.47-10.214h-163.21c-2.96 0-5.61 1.107-7.69 3.187-2.07 2.081-3.17 4.748-3.17 7.712 0 2.997 1.12 5.672 3.22 7.72 2.08 2.022 4.71 3.088 7.64 3.088h163.21c3.64 0 6.55 1.23 9.16 3.872 2.63 2.658 3.85 5.573 3.85 9.189 0 3.616-1.2 6.514-3.8 9.14-2.6 2.634-5.52 3.872-9.12 3.914h-139.77c-2.96 0-5.61 1.106-7.69 3.187-2.07 2.08-3.17 4.755-3.17 7.711 0 2.997 1.12 5.672 3.22 7.72 2.08 2.023 4.71 3.088 7.64 3.088h139.71c3.66.041 6.58 1.288 9.18 3.913 2.6 2.626 3.8 5.532 3.8 9.14 0 3.666-1.21 6.589-3.83 9.214-2.62 2.626-5.53 3.848-9.18 3.848h-163.21c-2.92 0-5.56 1.065-7.63 3.088-2.11 2.064-3.23 4.73-3.23 7.728 0 2.964 1.1 5.63 3.17 7.711 2.07 2.089 4.73 3.187 7.69 3.187h163.21c9.48 0 17.71-3.435 24.47-10.213 6.75-6.779 10.17-15.043 10.17-24.555 0-8.884-3.02-16.744-9.06-23.431l-.45-.479.51-.57c5.98-6.597 9-14.457 9-23.341Zm221.89 60.883H1378.5c-8.78 0-16.1-3.063-22.37-9.355-5.09-5.119-8.22-12.417-9.27-21.706l-.4-3.509v-50.182l-.05-1.536c-.35-2.658-1.62-4.987-3.67-6.745-4.27-3.65-10.8-3.369-14.74.569-2.07 2.089-3.17 4.756-3.17 7.712v47.738c0 7.951 1.32 15.778 3.9 23.267 2.67 7.695 6.74 14.341 12.12 19.733 5 5.02 10.81 8.933 17.26 11.641 6.46 2.717 13.32 4.087 20.4 4.087h144.18c2.95 0 5.6-1.098 7.68-3.178 2.08-2.081 3.18-4.748 3.18-7.72 0-2.997-1.12-5.672-3.24-7.736-2.08-2.015-4.71-3.08-7.63-3.08Zm239.27-79.922c-5-5.02-10.81-8.934-17.26-11.642a52.502 52.502 0 0 0-20.39-4.087h-113.04c-7.07 0-13.93 1.371-20.4 4.087-6.45 2.708-12.26 6.622-17.26 11.642-5.37 5.391-9.45 12.013-12.11 19.691a70.636 70.636 0 0 0-3.91 23.226v47.829c0 2.964 1.1 5.631 3.17 7.712 4.16 4.194 11.29 4.177 15.39-.058 2.01-2.081 3.07-4.723 3.07-7.654v-20.005h177.12v20.005c0 2.931 1.07 5.581 3.07 7.646 2.06 2.121 4.72 3.253 7.7 3.253 2.96 0 5.62-1.107 7.69-3.187 2.08-2.081 3.17-4.748 3.17-7.712v-47.829c0-7.959-1.31-15.77-3.9-23.226-2.65-7.67-6.73-14.291-12.11-19.691Zm-182.73 49.026v-6.027c0-5.325.85-10.593 2.52-15.654 1.58-4.789 3.99-8.826 7.15-12.005 6.27-6.291 13.6-9.354 22.37-9.354h113.05c8.77 0 16.1 3.063 22.37 9.354 3.15 3.171 5.56 7.208 7.14 12.005a49.97 49.97 0 0 1 2.53 15.654v6.027h-177.13Zm443.19-29.987c0-9.511-3.42-17.776-10.18-24.554-6.76-6.779-14.99-10.214-24.47-10.214h-174.88c-2.95 0-5.61 1.107-7.69 3.187-2.08 2.089-3.17 4.756-3.17 7.712v95.568c0 2.964 1.09 5.631 3.17 7.711 2.07 2.089 4.73 3.187 7.69 3.187h174.88c9.48 0 17.72-3.434 24.47-10.213 6.76-6.778 10.18-15.035 10.18-24.554 0-8.884-3.03-16.744-9.03-23.383l-.47-.52.51-.569c5.96-6.614 8.99-14.466 8.99-23.358Zm-25.44 9.14c-2.57 2.601-5.57 3.881-9.11 3.914h-164.21V124.02h164.11c3.59 0 6.5 1.238 9.14 3.888 2.64 2.659 3.87 5.573 3.87 9.173 0 3.616-1.21 6.523-3.8 9.14Zm-173.32 25.636h164.14c3.61.041 6.61 1.321 9.18 3.914 2.6 2.625 3.81 5.531 3.81 9.14 0 3.649-1.23 6.572-3.86 9.197-2.64 2.634-5.55 3.864-9.16 3.864h-164.11v-26.115Zm433-11.501c-6.76-6.779-14.99-10.213-24.46-10.213h-151.1c-3.65 0-6.56-1.23-9.17-3.872-2.62-2.651-3.84-5.574-3.84-9.182 0-3.616 1.22-6.53 3.84-9.181 2.62-2.642 5.53-3.872 9.17-3.872h169.09c2.95 0 5.59-1.09 7.64-3.146s3.14-4.706 3.14-7.67c0-2.923-1.06-5.573-3.08-7.662-2.06-2.122-4.72-3.236-7.69-3.236h-169.1c-9.47 0-17.7 3.434-24.46 10.213-6.76 6.778-10.19 15.043-10.19 24.554 0 9.52 3.42 17.776 10.19 24.555 6.75 6.778 14.98 10.213 24.46 10.213h151.11c3.59 0 6.5 1.23 9.15 3.856 2.63 2.625 3.86 5.548 3.86 9.198 0 3.649-1.23 6.572-3.86 9.197-2.64 2.634-5.55 3.864-9.15 3.864h-169.1c-2.94 0-5.58 1.082-7.64 3.146-2.05 2.056-3.13 4.706-3.13 7.67 0 2.931 1.06 5.573 3.08 7.654 2.06 2.122 4.72 3.245 7.7 3.245h169.09c9.48 0 17.72-3.435 24.47-10.214 6.76-6.778 10.18-15.035 10.18-24.554-.01-9.52-3.43-17.785-10.2-24.563ZM272.381 193.101h-40.289c-.872-12.509-4.632-24.984-12.02-37.27-7.602-12.648-19.605-22.63-29.387-33.57 6.326-11.254 14.899-23.085 20.049-36.27 15.468-39.59-4.697-76.38-46.22-84.026-41.161-7.571-76.093 7.332-106.345 34.388-8.82 7.901-15.697 17.99-24.229 27.964 11.14 6.217 20.132 11.237 29.404 16.414 11.954-18.684 27.43-31.746 46.681-40.027 16.792-7.224 34.209-11.105 52.391-5.854 15.064 4.351 22.436 14.548 20.461 29.699-2.641 20.335-15.056 34.924-31.058 46.128-8.07 5.647-17.087-.528-17.137-10.42-.033-6.927.272-13.879-.214-20.773-.148-2.088-2.361-5.672-3.784-5.754-9.231-.504-18.503-.248-28.433-.248 0 12.418-.19 23.729.09 35.032.124 4.962-1.571 7.133-6.409 8.809-10.045 3.468-19.712 8.017-30.367 12.468 6.023 10.461 11.198 19.452 16.422 28.517 6.812-3.005 12.736-5.622 19.564-8.636.305 3.6.683 5.994.691 8.389.05 18.849.51 37.715-.205 56.531a22.437 22.437 0 0 0 .189 4.029l-.025.785c0 3.633 2.937 6.58 6.557 6.58h84.765c-16.676 39.606-66.089 69.172-108.064 62.749-23.423-3.583-42.156-13.698-50.178-37.509-6.129-18.181-2.27-35.626 6.82-51.966 3.711-6.663 8.368-12.797 12.876-19.601-7.94-7.15-15.607-14.06-24.714-22.267-7.19 11.617-14.57 21.392-19.746 32.233-29.535 61.873 5.85 125.415 73.008 131.797 54.358 5.168 110.426-25 135.576-73.622 3.736-7.225 6.755-14.507 8.976-21.83h44.304v-32.869Zm-137.649-39.978c.008-2.956.329-5.903.567-9.883 5.743.636 10.646.917 15.459 1.742 27.726 4.731 45.628 23.754 48.146 48.119H134.69c-.016-13.326.017-26.652.042-39.978Zm2174.018-44.375h-15.59v-5.903h37.8v5.903h-15.59v44.725h-6.62v-44.725Zm29.57-5.914h8.9l17.94 42.215 17.95-42.215h8.9v50.628h-6.62V110.95l-17.73 42.512h-5.01l-17.72-42.512v42.512h-6.62v-50.628h.01Z" fill="#fff"/></g><defs><clipPath id="a"><path d="M0 0h2392v322H0z" fill="#fff"/></clipPath></defs></svg>