<svg xmlns="http://www.w3.org/2000/svg" fill="none" viewBox="0 0 135 66"><path d="M6.944 30.302V57.78a.27.27 0 0 0 .079.227.276.276 0 0 0 .229.077h10.496c.948-.031 1.407.421 1.375 1.358v4.143c.03.935-.428 1.388-1.375 1.357H1.376c-.947.032-1.405-.42-1.374-1.357V30.302c-.033-.935.425-1.387 1.374-1.357H5.57c.948-.031 1.406.421 1.374 1.357Zm60.768-1.357h4.076c.92-.03 1.365.425 1.336 1.367v33.27c.03.938-.414 1.39-1.336 1.36h-4.076c-.922.032-1.367-.421-1.336-1.36V30.306c-.03-.935.415-1.388 1.336-1.36Zm25.616 7.177v27.461c.03.937-.415 1.39-1.336 1.359h-4.076c-.921.032-1.366-.421-1.335-1.359V36.122a.277.277 0 0 0-.077-.226.267.267 0 0 0-.223-.078h-6.194c-.92.032-1.365-.421-1.336-1.36v-4.146c-.03-.938.414-1.394 1.336-1.367h19.826c.922-.03 1.367.425 1.335 1.367v4.146c.032.938-.413 1.391-1.335 1.36h-6.286a.264.264 0 0 0-.222.078.276.276 0 0 0-.077.226Zm17.759 22.237-2.287 5.508c-.286.735-.832 1.093-1.638 1.076h-4.864c-.699 0-1.048-.266-1.048-.797.011-.187.058-.37.139-.539l13.601-33.584c.287-.734.827-1.094 1.621-1.079h2.953c.795-.015 1.335.344 1.621 1.079l13.697 33.584c.072.171.112.354.118.539 0 .53-.349.796-1.048.797h-4.808c-.795.015-1.343-.344-1.644-1.079l-2.43-5.53a.23.23 0 0 0-.09-.09.24.24 0 0 0-.124-.028h-13.554a.23.23 0 0 0-.215.144Zm6.932-17.154-4.186 10.382a.357.357 0 0 0-.025.116c0 .094.064.137.192.137h8.171c.139 0 .214-.047.214-.137a.763.763 0 0 0-.023-.116l-4.17-10.382c-.015-.048-.039-.071-.07-.071a.096.096 0 0 0-.066.016.09.09 0 0 0-.037.055Z" fill="#47194D"/><path d="M42.721 28.597c5.004 0 9.31 1.797 12.92 5.39 3.593 3.609 5.39 7.962 5.388 13.06 0 5.097-1.797 9.45-5.389 13.06-3.608 3.594-7.961 5.39-13.06 5.389-5.114 0-9.475-1.796-13.084-5.389-3.592-3.608-5.389-7.955-5.389-13.042 0-5.088 1.797-9.449 5.389-13.084 3.58-3.588 7.988-5.383 13.225-5.384Zm-.258 6.872c-3.106 0-5.797 1.138-8.072 3.413-2.258 2.259-3.388 4.983-3.389 8.172 0 3.188 1.129 5.91 3.389 8.166 2.274 2.274 5.004 3.411 8.189 3.411 3.169 0 5.89-1.137 8.166-3.411 2.259-2.26 3.388-4.982 3.388-8.166 0-3.17-1.13-5.89-3.388-8.165-2.243-2.28-5.004-3.42-8.283-3.42Z" fill="#FC805C"/><path d="M48.529 34.85c3.05 1.19 5.28 3.261 6.69 6.216a12.307 12.307 0 0 1 1.134 5.144c.01.663.474 1.126 1.089 1.129.615.003 1.076-.461 1.098-1.12.007-.183 0-.366 0-.55a13.94 13.94 0 0 0-1.664-6.233c-1.72-3.18-4.275-5.42-7.668-6.686-.777-.29-1.463.068-1.609.805-.103.554.228 1.02.93 1.294Zm-5.967-1.105a1.098 1.098 0 1 0 .028-2.197 1.098 1.098 0 0 0-.028 2.197Z" fill="#fff"/><path d="M62.901 15.679a3.607 3.607 0 0 1-2.567-1.071c-9.803-9.79-25.729-9.79-35.531 0a3.638 3.638 0 0 1-5.135 0 3.638 3.638 0 0 1 0-5.135c12.63-12.63 33.17-12.63 45.8 0a3.638 3.638 0 0 1-2.567 6.206Z" fill="#FC805C"/><path d="M53.07 25.495a3.608 3.608 0 0 1-2.567-1.07 11.165 11.165 0 0 0-7.935-3.282 11.165 11.165 0 0 0-7.936 3.281 3.638 3.638 0 0 1-5.134 0 3.638 3.638 0 0 1 0-5.134 18.36 18.36 0 0 1 13.07-5.41c4.942 0 9.583 1.922 13.07 5.423a3.638 3.638 0 0 1 0 5.135c-.7.7-1.634 1.057-2.567 1.057Z" fill="#FC805C"/></svg>