<svg xmlns="http://www.w3.org/2000/svg" fill="none" viewBox="0 0 228 60"><path d="M75.398 15.435h6.261l14.319 21.218V15.435h5.694v29.157h-6.261L81.092 23.327v21.265h-5.694V15.435Zm29.511 18.546c0-6.71 4.419-11.223 11.058-11.223 2.505 0 5.27 1.158 6.9 2.883v-2.292h5.104v21.265h-5.104v-2.292c-1.607 1.749-4.371 2.883-6.9 2.883-6.639 0-11.058-4.513-11.058-11.224Zm17.934 0c0-4.04-2.552-6.71-6.379-6.71-3.875 0-6.474 2.67-6.474 6.71s2.599 6.71 6.474 6.71c3.827 0 6.379-2.67 6.379-6.71Zm9.003-18.548h5.104v4.678h-5.104v-4.678Zm0 7.916h5.104v21.265h-5.104V23.35Zm9.522-7.916h12.972c6.049 0 10.066 3.615 10.066 9.003 0 5.481-4.041 9.144-10.066 9.144h-7.277v11.01h-5.695V15.433ZM154.34 28.5c2.646 0 4.371-1.607 4.371-4.04 0-2.34-1.748-3.923-4.371-3.923h-7.277v7.939h7.277v.024Zm10.586 5.481c0-6.71 4.418-11.223 11.058-11.223 2.504 0 5.269 1.158 6.899 2.883v-2.292h5.104v21.265h-5.104v-2.292c-1.607 1.749-4.371 2.883-6.899 2.883-6.64 0-11.058-4.513-11.058-11.224Zm17.957 0c0-4.04-2.552-6.71-6.38-6.71-3.875 0-6.474 2.67-6.474 6.71s2.599 6.71 6.474 6.71c3.828 0 6.38-2.67 6.38-6.71Zm9.003-10.632h5.103v2.504c1.111-1.748 3.19-2.93 5.151-2.93.756 0 1.654.166 2.245.426v3.922h-1.749c-3.402 0-5.647 1.914-5.647 4.773v12.594h-5.103v-21.29Zm30.952 2.339v-2.34h5.104v29.158h-5.104V42.25c-1.606 1.749-4.465 2.93-7.064 2.93-6.711 0-11.224-4.513-11.224-11.223 0-6.71 4.513-11.224 11.224-11.224 2.599.024 5.458 1.205 7.064 2.954Zm-13.184 8.293c0 4.04 2.646 6.71 6.639 6.71 3.923 0 6.545-2.67 6.545-6.71s-2.646-6.71-6.545-6.71c-3.993 0-6.639 2.67-6.639 6.71Z" fill="#000"/><path d="M42.602 15.315c1.488-1.465 1.11-3.97-.733-4.938-4.536-2.41-12.168-6.404-16.492-8.412A20.758 20.758 0 0 0 13.114.287l20.06 20.014c1.205 1.205 3.166 1.205 4.395 0 1.489-1.442 3.426-3.38 5.033-4.986Z" fill="url(#a)"/><path d="M9.664 3.312C3.97 6.95 0 13.307 0 20.939v6.096l14.508-14.508a3.123 3.123 0 0 0 0-4.395l-4.844-4.82Z" fill="url(#b)"/><path d="M18.714 15.788.118 35.73v16.776c0 2.764 3.12 4.159 4.938 2.197l25.117-26.77c1.11-1.206 1.135-3.049 0-4.254l-7.348-7.891a2.79 2.79 0 0 0-4.111 0Z" fill="url(#c)"/><path d="M22.069 44.685c-1.489 1.465-1.11 3.97.732 4.938 4.513 2.41 12.169 6.404 16.493 8.412a20.758 20.758 0 0 0 12.263 1.678L31.473 39.699c-1.205-1.205-3.166-1.205-4.395 0a1015.136 1015.136 0 0 1-5.01 4.986Z" fill="url(#d)"/><path d="M54.983 56.688c5.695-3.639 9.664-9.995 9.664-17.627v-6.096L50.14 47.473a3.123 3.123 0 0 0 0 4.395l4.844 4.82Z" fill="url(#e)"/><path d="m45.933 44.236 17.745-19.044c.544-.567.827-1.323.827-2.127V7.518c0-2.765-3.119-4.159-4.938-2.198L34.474 32.091c-1.11 1.205-1.134 3.048 0 4.253l7.372 7.892c1.134 1.205 2.977 1.205 4.087 0Z" fill="url(#f)"/><defs><linearGradient id="a" x1="11.105" x2="59.071" y1="15.362" y2="53.522" gradientUnits="userSpaceOnUse"><stop stop-color="#FBCE33"/><stop offset="1" stop-color="#4BC1F1"/></linearGradient><linearGradient id="b" x1="11.105" x2="59.071" y1="15.362" y2="53.522" gradientUnits="userSpaceOnUse"><stop stop-color="#FBCE33"/><stop offset="1" stop-color="#4BC1F1"/></linearGradient><linearGradient id="c" x1="11.105" x2="59.071" y1="15.362" y2="53.522" gradientUnits="userSpaceOnUse"><stop stop-color="#FBCE33"/><stop offset="1" stop-color="#4BC1F1"/></linearGradient><linearGradient id="d" x1="11.105" x2="59.071" y1="15.362" y2="53.522" gradientUnits="userSpaceOnUse"><stop stop-color="#FBCE33"/><stop offset="1" stop-color="#4BC1F1"/></linearGradient><linearGradient id="e" x1="11.105" x2="59.071" y1="15.362" y2="53.522" gradientUnits="userSpaceOnUse"><stop stop-color="#FBCE33"/><stop offset="1" stop-color="#4BC1F1"/></linearGradient><linearGradient id="f" x1="11.105" x2="59.071" y1="15.362" y2="53.522" gradientUnits="userSpaceOnUse"><stop stop-color="#FBCE33"/><stop offset="1" stop-color="#4BC1F1"/></linearGradient></defs></svg>