<svg xmlns="http://www.w3.org/2000/svg" fill="none" viewBox="0 0 1673 284"><path d="M61.907 225.389c-21.737 0-38.247-7.967-49.53-23.934-11.284-15.951-14.849-35.853-10.709-59.691 4.347-24.03 15.168-43.932 32.461-59.69 17.277-15.743 36.28-23.63 56.995-23.63 8.902 0 17.597 2.127 26.083 6.367 8.487 4.255 14.8 10.735 18.94 19.438l3.724-22.078h43.793l-38.822 221.661H97.644l13.969-79.577c-6.009 7.055-13.505 12.335-22.52 15.855-9.03 3.519-18.076 5.279-27.186 5.279Zm-12.738-83.001c-2.078 12.239-.208 22.174 5.594 29.838 5.785 7.663 13.873 11.503 24.23 11.503 10.756 0 20.394-3.776 28.88-11.343 8.487-7.568 13.762-17.567 15.839-29.998 2.27-12.639.512-22.846-5.274-30.621-5.802-7.776-14.081-11.663-24.853-11.663-10.357 0-19.819 3.935-28.417 11.807-8.6 7.903-13.938 18.046-16 30.477Zm192.864 79.273H198.24L237.366 0h47.213L270.29 81.45c6.218-7.456 13.825-13.152 22.824-17.103 8.998-3.936 18.06-5.904 27.17-5.904 21.737 0 38.199 7.935 49.387 23.79 11.172 15.855 14.704 35.805 10.565 59.835-4.348 24.254-15.072 44.204-32.142 59.835-17.085 15.647-35.865 23.47-56.371 23.47-9.11 0-18.076-2.176-26.867-6.527-8.806-4.352-15.056-10.879-18.796-19.583l-4.027 22.398Zm16.462-80.201c-2.286 12.639-.527 22.846 5.274 30.622 5.786 7.775 14.081 11.663 24.838 11.663 10.34 0 19.77-3.936 28.257-11.807 8.487-7.872 13.873-18.031 16.143-30.462 2.061-12.223.207-22.174-5.594-29.837-5.802-7.664-13.873-11.503-24.214-11.503-10.773 0-20.394 3.791-28.881 11.343-8.471 7.551-13.761 17.55-15.823 29.981Zm141.607-79.273h47.821l19.259 104.151L522.77 62.187h47.821l-92.237 159.475h-41.923L400.102 62.187Zm235.714 163.202c-26.291 0-46.174-7.919-59.631-23.774-13.458-15.854-18.125-35.693-13.969-59.531 4.139-23.63 15.471-43.468 34.011-59.53 18.524-16.063 39.493-24.095 62.892-24.095 22.568 0 39.589 6.896 51.081 20.67 11.492 13.791 15.375 31.454 11.651 53.004-1.038 6.016-3.212 13.055-6.52 21.134H609.125c-.623 10.159 2.589 18.031 9.622 23.63 7.032 5.6 16.046 8.4 27.011 8.4 15.727 0 29.919-5.488 42.546-16.479l19.563 30.461c-21.945 17.407-45.951 26.11-72.051 26.11ZM651.671 97c-8.694 0-16.622 2.448-23.766 7.311-7.145 4.88-11.955 11.455-14.449 19.743h63.676l.303-.304c.816-8.08-1.134-14.559-5.897-19.439-4.763-4.863-11.38-7.311-19.867-7.311Zm84.772 124.662 27.954-159.475h45.343l-3.42 20.526c12.834-16.158 30.016-24.254 51.561-24.254 19.035 0 33.068 5.904 42.082 17.71 8.999 11.808 11.652 27.982 7.912 48.493l-17.086 96.984h-47.213l15.839-89.849c1.87-10.159.719-17.982-3.42-23.47-4.14-5.487-10.661-8.239-19.563-8.239-9.942 0-18.317 3.679-25.157 11.039-6.825 7.359-11.188 16.526-13.042 27.518l-14.592 83.001h-47.198v.016ZM933.351 99.496l6.521-37.31h22.984l7.767-43.212h45.647l-7.77 43.213h35.71l-6.52 37.309h-35.72l-10.873 62.794c-2.701 14.095 2.685 21.135 16.143 21.135 7.86 0 14.91-1.872 21.11-5.6l-7.14 40.717c-9.73 4.559-21.226 6.831-34.476 6.831-16.974 0-29.408-4.863-37.272-14.607-7.879-9.743-10.245-23.422-7.144-41.036l12.418-70.266h-21.385v.032Zm169.879 125.893c-19.05 0-33.07-5.903-42.08-17.71-9.01-11.807-11.65-27.982-7.93-48.492l17.09-97h47.19l-15.83 89.849c-1.87 10.159-.74 17.982 3.42 23.47 4.14 5.487 10.66 8.239 19.56 8.239 9.94 0 18.27-3.68 25-11.039 6.72-7.36 11.02-16.527 12.88-27.518l14.91-83.001h47.2l-28.26 159.475h-45.34l3.72-20.511c-13.03 16.159-30.21 24.238-51.53 24.238Zm183.53-3.727h-47.51l27.95-159.475h46.89l-4.65 27.678c5.79-9.744 13.09-17.407 21.9-23.006 8.79-5.6 18.36-8.4 28.72-8.4 3.1 0 6.31.416 9.62 1.248l-8.07 45.084c-2.08-1.04-5.48-1.552-10.25-1.552-13.66 0-25.26 4.88-34.77 14.607-9.53 9.743-15.75 22.894-18.64 39.485l-11.19 64.331Zm148.77 3.727c-26.29 0-46.17-7.919-59.63-23.774-13.46-15.854-18.13-35.693-13.97-59.531 4.14-23.63 15.47-43.468 34.01-59.53 18.52-16.063 39.49-24.095 62.89-24.095 22.57 0 39.59 6.896 51.08 20.67 11.5 13.791 15.38 31.454 11.66 53.004-1.04 6.016-3.22 13.055-6.53 21.134h-106.2c-.62 10.159 2.59 18.031 9.62 23.63 7.03 5.6 16.05 8.4 27.01 8.4 15.73 0 29.92-5.488 42.55-16.479l19.56 30.461c-21.94 17.407-45.97 26.11-72.05 26.11ZM1451.37 97c-8.7 0-16.62 2.448-23.77 7.311-7.14 4.88-11.95 11.455-14.45 19.743h63.68l.3-.304c.82-8.08-1.13-14.559-5.89-19.439-4.75-4.863-11.38-7.311-19.87-7.311Zm76.09 92.024 35.1-23.31c6.43 15.343 17.39 23.006 32.93 23.006 13.25 0 20.6-3.727 22.05-11.183.62-4.351-1.04-7.775-4.97-10.255-3.93-2.48-12.23-5.999-24.84-10.575-15.74-5.807-26.98-12.479-33.69-20.046-6.73-7.568-9.06-17.455-6.98-29.694 2.47-14.495 10.66-26.206 24.53-35.133 13.87-8.911 29.81-13.359 47.82-13.359 13.04 0 24.33 2.96 33.85 8.864 9.51 5.903 15.94 13.63 19.26 23.166l-33.85 21.758c-4.76-11.599-13.78-17.407-27.03-17.407-5.38 0-10.08 1.136-14.12 3.424-4.05 2.288-6.37 5.184-6.99 8.703-.62 3.104.98 5.808 4.81 8.08 3.84 2.287 11.96 6.015 24.38 11.183 8.07 3.311 14.24 6.063 18.47 8.239 4.24 2.176 8.74 5.232 13.51 9.167 4.76 3.936 7.86 8.56 9.31 13.839 1.44 5.28 1.56 11.551.31 18.798-2.48 14.095-10.52 25.806-24.07 35.134-13.57 9.327-29.76 13.982-48.61 13.982-14.7 0-27.53-3.215-38.5-9.631-10.99-6.431-18.54-15.343-22.68-26.75Z" fill="#fff"/></svg>