<svg xmlns="http://www.w3.org/2000/svg" fill="none" viewBox="0 0 229 39"><path d="M8.47 30.836c-2.974 0-5.233-1.09-6.777-3.274C.15 25.38-.338 22.657.228 19.395c.595-3.287 2.075-6.01 4.441-8.166 2.364-2.154 4.964-3.233 7.798-3.233 1.218 0 2.407.291 3.569.871 1.16.582 2.024 1.469 2.59 2.66l.51-3.021h5.992l-5.312 30.326H13.36l1.911-10.887c-.822.965-1.848 1.688-3.08 2.17-1.236.48-2.474.721-3.72.721ZM6.727 19.481c-.284 1.674-.028 3.033.765 4.082.792 1.048 1.898 1.574 3.315 1.574 1.472 0 2.79-.517 3.952-1.552 1.16-1.036 1.882-2.404 2.167-4.104.31-1.73.07-3.126-.722-4.19-.794-1.064-1.927-1.595-3.4-1.595-1.417 0-2.712.538-3.888 1.615-1.177 1.081-1.907 2.469-2.189 4.17Z" fill="url(#a)"/><path d="M33.114 30.326h-5.992L32.475 0h6.46l-1.956 11.143a8.41 8.41 0 0 1 3.123-2.34c1.231-.538 2.471-.807 3.717-.807 2.974 0 5.226 1.085 6.757 3.255 1.529 2.169 2.012 4.898 1.446 8.186-.595 3.318-2.063 6.048-4.398 8.186-2.337 2.14-4.907 3.211-7.712 3.211-1.247 0-2.473-.297-3.676-.893-1.205-.595-2.06-1.488-2.572-2.679l-.55 3.064Zm2.252-10.972c-.313 1.729-.072 3.125.721 4.19.792 1.063 1.927 1.595 3.398 1.595 1.415 0 2.705-.539 3.866-1.616 1.162-1.076 1.898-2.466 2.209-4.167.282-1.672.028-3.034-.765-4.082C44 14.225 42.897 13.7 41.482 13.7c-1.474 0-2.79.519-3.951 1.552-1.16 1.033-1.883 2.401-2.165 4.102Z" fill="url(#b)"/><path d="M54.74 8.508h6.542l2.635 14.25 7.605-14.25h6.543l-12.62 21.818H59.71L54.74 8.508Zm32.249 22.328c-3.598 0-6.318-1.083-8.159-3.252-1.841-2.17-2.48-4.883-1.911-8.145.566-3.233 2.117-5.947 4.653-8.145 2.534-2.197 5.403-3.296 8.605-3.296 3.087 0 5.416.943 6.988 2.828 1.572 1.887 2.104 4.303 1.594 7.252-.142.823-.44 1.786-.892 2.891h-14.53c-.085 1.39.354 2.467 1.316 3.233.962.766 2.196 1.15 3.696 1.15 2.151 0 4.093-.752 5.82-2.255l2.677 4.167c-3.002 2.382-6.287 3.572-9.857 3.572Zm2.169-17.565a5.66 5.66 0 0 0-3.252 1 4.882 4.882 0 0 0-1.977 2.701h8.712l.042-.041c.111-1.106-.156-1.992-.807-2.66-.652-.665-1.557-1-2.718-1Zm11.598 17.055 3.824-21.818h6.204l-.468 2.808c1.756-2.21 4.106-3.318 7.054-3.318 2.604 0 4.524.808 5.758 2.423 1.231 1.616 1.594 3.828 1.082 6.634l-2.338 13.27h-6.459l2.167-12.293c.256-1.39.098-2.46-.468-3.211-.566-.751-1.458-1.128-2.676-1.128-1.361 0-2.506.504-3.442 1.51-.934 1.008-1.531 2.262-1.785 3.765l-1.996 11.356h-6.457v.002Zm26.94-16.714.892-5.104h3.144l1.063-5.912h6.245l-1.063 5.912h4.885l-.892 5.104h-4.887l-1.487 8.592c-.37 1.928.367 2.891 2.209 2.891 1.075 0 2.04-.256 2.888-.766l-.977 5.57c-1.332.624-2.904.935-4.717.935-2.322 0-4.023-.665-5.099-1.998-1.078-1.333-1.402-3.205-.978-5.615l1.699-9.613h-2.925v.004Zm23.242 17.224c-2.607 0-4.525-.807-5.758-2.423-1.233-1.615-1.594-3.828-1.084-6.634l2.337-13.27h6.457L150.723 20.8c-.256 1.39-.1 2.46.468 3.21.567.751 1.459 1.128 2.677 1.128 1.36 0 2.499-.504 3.42-1.51.92-1.007 1.508-2.262 1.762-3.765l2.04-11.356h6.458l-3.866 21.818h-6.204l.509-2.806c-1.782 2.211-4.132 3.316-7.049 3.316Zm25.109-.51h-6.501l3.825-21.818h6.415l-.636 3.787c.792-1.333 1.791-2.382 2.996-3.148a7.17 7.17 0 0 1 3.929-1.149c.424 0 .864.057 1.317.17l-1.105 6.169c-.284-.142-.75-.212-1.401-.212-1.87 0-3.457.667-4.759 1.998-1.303 1.333-2.153 3.132-2.549 5.402l-1.531 8.801Zm20.354.51c-3.597 0-6.318-1.083-8.159-3.252-1.841-2.17-2.48-4.883-1.911-8.145.566-3.233 2.117-5.947 4.653-8.145 2.535-2.197 5.404-3.296 8.605-3.296 3.087 0 5.416.943 6.988 2.828 1.573 1.887 2.104 4.303 1.594 7.252-.142.823-.439 1.786-.892 2.891h-14.53c-.085 1.39.354 2.467 1.316 3.233.962.766 2.196 1.15 3.696 1.15 2.151 0 4.093-.752 5.821-2.255l2.676 4.167c-3.002 2.382-6.289 3.572-9.857 3.572Zm2.167-17.565c-1.19 0-2.275.335-3.252 1a4.884 4.884 0 0 0-1.977 2.701h8.712l.042-.041c.111-1.106-.156-1.992-.807-2.66-.65-.665-1.557-1-2.718-1Zm10.41 12.59 4.802-3.189c.879 2.1 2.379 3.148 4.505 3.148 1.813 0 2.818-.51 3.017-1.53.086-.596-.142-1.064-.68-1.403-.538-.34-1.672-.821-3.398-1.447-2.154-.795-3.691-1.708-4.609-2.743-.921-1.035-1.24-2.388-.956-4.062.339-1.983 1.459-3.586 3.357-4.807C216.914 8.608 219.094 8 221.558 8c1.785 0 3.328.405 4.632 1.213 1.301.808 2.18 1.865 2.635 3.17l-4.632 2.976c-.651-1.587-1.885-2.381-3.697-2.381-.737 0-1.38.155-1.934.468-.553.313-.87.71-.955 1.19-.085.425.133.795.658 1.106.525.313 1.636.823 3.335 1.53 1.104.453 1.948.83 2.528 1.127.579.298 1.196.716 1.847 1.255.652.538 1.076 1.17 1.275 1.893.197.722.212 1.58.042 2.572-.339 1.928-1.439 3.53-3.293 4.807-1.857 1.276-4.072 1.913-6.65 1.913-2.012 0-3.768-.44-5.268-1.318-1.504-.88-2.536-2.1-3.103-3.66Z" fill="#fff"/><defs><linearGradient id="a" x1="-32.807" x2="23.309" y1="55.167" y2="14.4" gradientUnits="userSpaceOnUse"><stop stop-color="#1045DC"/><stop offset=".069" stop-color="#0E5BDF"/><stop offset=".224" stop-color="#0A88E6"/><stop offset=".363" stop-color="#07A8EA"/><stop offset=".478" stop-color="#06BCED"/><stop offset=".557" stop-color="#05C3EE"/><stop offset=".631" stop-color="#04C8D2"/><stop offset=".806" stop-color="#02D493"/><stop offset=".933" stop-color="#01DB6C"/><stop offset="1" stop-color="#00DE5D"/></linearGradient><linearGradient id="b" x1="-5.686" x2="50.428" y1="47.168" y2="6.398" gradientUnits="userSpaceOnUse"><stop stop-color="#1045DC"/><stop offset=".069" stop-color="#0E5BDF"/><stop offset=".224" stop-color="#0A88E6"/><stop offset=".363" stop-color="#07A8EA"/><stop offset=".478" stop-color="#06BCED"/><stop offset=".557" stop-color="#05C3EE"/><stop offset=".631" stop-color="#04C8D2"/><stop offset=".806" stop-color="#02D493"/><stop offset=".933" stop-color="#01DB6C"/><stop offset="1" stop-color="#00DE5D"/></linearGradient></defs></svg>